<svg id="SvgjsSvg1059" width="288" height="288" xmlns="http://www.w3.org/2000/svg" version="1.1" xmlns:xlink="http://www.w3.org/1999/xlink" xmlns:svgjs="http://svgjs.com/svgjs"><defs id="SvgjsDefs1060"></defs><g id="SvgjsG1061"><svg xmlns="http://www.w3.org/2000/svg" fill="none" viewBox="0 0 24 24" width="288" height="288"><path fill="#ff2a80" fill-rule="evenodd" d="M16.359 2H7.64C4.256 2 2 4.42 2 7.893v8.214C2 19.583 4.25 22 7.641 22h8.718C19.75 22 22 19.583 22 16.107V7.893C22 4.417 19.75 2 16.359 2ZM7.64 3.395h8.718c2.597 0 4.246 1.77 4.246 4.498v8.214c0 2.727-1.649 4.498-4.246 4.498H7.64c-2.597 0-4.246-1.77-4.246-4.498V7.893c0-2.724 1.654-4.498 4.246-4.498ZM12 7.885c.353 0 .645.263.691.604l.007.095v2.71h2.713a.698.698 0 0 1 .095 1.388l-.095.007h-2.713v2.71a.698.698 0 0 1-1.39.094l-.006-.094v-2.71H8.59a.698.698 0 0 1-.095-1.39l.095-.005h2.713v-2.71c0-.386.313-.698.698-.698Z" clip-rule="evenodd" class="color200E32 svgShape"></path></svg></g></svg>