<svg id="SvgjsSvg1014" width="288" height="288" xmlns="http://www.w3.org/2000/svg" version="1.1" xmlns:xlink="http://www.w3.org/1999/xlink" xmlns:svgjs="http://svgjs.com/svgjs"><defs id="SvgjsDefs1015"></defs><g id="SvgjsG1016"><svg xmlns="http://www.w3.org/2000/svg" viewBox="0 0 64 64" width="288" height="288"><linearGradient id="a" x1="32" x2="32" y1="60" y2="4" gradientUnits="userSpaceOnUse"><stop offset="0" stop-color="#ffffff" class="stopColorec4130 svgShape"></stop><stop offset="1" stop-color="#ffffff" class="stopColorf96762 svgShape"></stop></linearGradient><path fill="url(#a)" d="M28.4 58.8c2.2 1.6 5.1 1.6 7.3 0C41.8 54 54.3 44 59.3 36.3c6.8-10.6 5.9-20.2-.8-27.1-6.7-6.9-17.5-6.9-24.1 0-.7.8-1.4 1.6-2 2.4-.2.3-.7.3-.9 0-.6-.9-1.2-1.7-2-2.4-6.7-6.9-17.5-6.9-24.1 0-6.6 6.8-7.5 16.5-.7 27.1C9.7 44 22.2 54 28.4 58.8z"></path></svg></g></svg>