<svg id="SvgjsSvg1057" width="288" height="288" xmlns="http://www.w3.org/2000/svg" version="1.1" xmlns:xlink="http://www.w3.org/1999/xlink" xmlns:svgjs="http://svgjs.com/svgjs"><defs id="SvgjsDefs1058"></defs><g id="SvgjsG1059"><svg xmlns="http://www.w3.org/2000/svg" enable-background="new 0 0 24 24" viewBox="0 0 24 24" width="288" height="288"><path fill="#ffffff" d="m12 0c-6.617 0-12 5.383-12 12s5.383 12 12 12 12-5.383 12-12-5.383-12-12-12z" class="color2196f3 svgShape"></path><path fill="#ff2a80" d="m18.082 9.457-6.5 6.5c-.195.195-.451.293-.707.293s-.512-.098-.707-.293l-3.25-3.25c-.391-.391-.391-1.023 0-1.414s1.023-.391 1.414 0l2.543 2.543 5.793-5.793c.391-.391 1.023-.391 1.414 0s.391 1.023 0 1.414z" class="colorfafafa svgShape"></path></svg></g></svg>