<svg id="SvgjsSvg1024" width="288" height="288" xmlns="http://www.w3.org/2000/svg" version="1.1" xmlns:xlink="http://www.w3.org/1999/xlink" xmlns:svgjs="http://svgjs.com/svgjs"><defs id="SvgjsDefs1025"></defs><g id="SvgjsG1026"><svg xmlns="http://www.w3.org/2000/svg" fill="none" viewBox="0 0 24 24" width="288" height="288"><path fill="url(#a)" d="M20 1H4a3 3 0 0 0-3 3v16a3 3 0 0 0 3 3h16a3 3 0 0 0 3-3V4a3 3 0 0 0-3-3Zm-4.85 11.71-4.88 4.88a1.002 1.002 0 0 1-1.639-.325 1 1 0 0 1 .219-1.095L13 12 8.85 7.83a1.004 1.004 0 1 1 1.42-1.42l4.88 4.88a1.002 1.002 0 0 1 0 1.42Z"></path><defs><linearGradient id="a" x1="12" x2="12" y1="1" y2="23" gradientUnits="userSpaceOnUse"><stop stop-color="#ff7359" class="stopColorFFA68D svgShape"></stop><stop offset="1" stop-color="#ff2a80" class="stopColorFD3A84 svgShape"></stop></linearGradient></defs></svg></g></svg>