<svg xmlns="http://www.w3.org/2000/svg" enable-background="new 0 0 24 24" viewBox="0 0 24 24"><path fill="#FF2A80" d="M22,2H2C1.4,2,1,2.4,1,3v4c0,1.6,1.3,3,3,3c0.7,0,1.5-0.3,2-0.8c1.1,1,2.9,1,4,0c1.1,1,2.9,1,4,0c1.1,1,2.9,1,4,0c1.2,1.1,3.1,1,4.2-0.2C22.7,8.5,23,7.7,23,7V3C23,2.4,22.6,2,22,2z M18,11.2c-1.1,1-2.9,1-4,0c-1.1,1-2.9,1-4,0c-1.1,1-2.9,1-4,0C5.4,11.7,4.7,12,4,12c-0.3,0-0.7-0.1-1-0.2V21c0,0.6,0.4,1,1,1h16c0.6,0,1-0.4,1-1v-9.2C20,12.2,18.8,12,18,11.2z M16,20H8v-1.8c0-2.1,1.5-3.9,3.6-4.2c2.2-0.2,4.2,1.4,4.4,3.6c0,0.1,0,0.3,0,0.4V20z"/></svg>