<?xml version="1.0" encoding="UTF-8"?>
<!-- Generated by Pixelmator Pro 3.0.1 -->
<svg width="288" height="288" viewBox="0 0 288 288" xmlns="http://www.w3.org/2000/svg" xmlns:xlink="http://www.w3.org/1999/xlink">
    <g id="SvgjsG1013">
        <g id="Associer">
            <path id="Ellipse" fill="#ffffff" fill-rule="evenodd" stroke="none" d="M 218 145.5 C 218 104.354797 184.645203 71 143.5 71 C 102.354782 71 69 104.354797 69 145.5 C 69 186.645218 102.354782 220 143.5 220 C 184.645203 220 218 186.645218 218 145.5 Z"/>
            <path id="Trac" fill="#1d9bf0" stroke="none" d="M 279.360016 148.058182 C 284.562012 140.937317 286.598358 131.986893 284.989105 123.31636 C 283.518829 114.588013 278.555389 106.835617 271.243622 101.847275 L 252.130905 88.887268 C 250.521942 87.778183 249.509125 85.993668 249.381805 84.04364 L 247.680008 61.134552 C 247.058121 52.309448 242.847412 44.124588 236.029099 38.487274 C 229.266891 32.779694 220.487793 30.042114 211.680008 30.894531 L 188.901825 33.250916 C 186.899323 33.512833 184.895233 32.779617 183.534546 31.287262 L 167.432724 14.792725 C 161.253448 8.511566 152.811157 4.974182 144 4.974182 C 135.188843 4.974182 126.746559 8.511566 120.567276 14.792725 L 104.465454 31.287262 C 103.104774 32.779617 101.10067 33.512833 99.098183 33.250916 L 76.32 30.894531 C 67.521149 30.060333 58.755539 32.791733 51.988007 38.476456 C 45.220474 44.161194 41.017071 52.323776 40.32 61.134552 L 38.618183 84.04364 C 38.467014 86.054245 37.406551 87.885956 35.738182 89.018188 L 16.756363 101.97818 C 9.492897 106.952347 4.538632 114.642044 3.011536 123.312012 C 1.484439 131.981979 3.513195 140.901627 8.64 148.058182 L 22.123636 166.778168 C 23.273464 168.415833 23.611034 170.489487 23.039999 172.407272 L 16.756363 194.530914 C 14.4051 203.05014 15.584793 212.157379 20.029091 219.796387 C 24.429436 227.447845 31.75551 232.977844 40.32 235.112717 L 62.574547 240.741806 C 64.505333 241.227051 66.101379 242.581268 66.894547 244.407272 L 76.32 265.352722 C 79.930069 273.431671 86.658951 279.703613 94.971443 282.737549 C 103.283928 285.771484 112.470909 285.308624 120.436363 281.454559 L 141.119995 271.505463 C 142.930557 270.588654 145.069443 270.588654 146.880005 271.505463 L 167.563644 281.454559 C 171.962845 283.615753 176.800415 284.735565 181.701813 284.727264 C 185.539459 284.723938 189.347839 284.059692 192.959991 282.763641 C 201.281036 279.703094 208.025299 273.43045 211.680008 265.352722 L 221.105453 244.407272 C 221.898636 242.581268 223.494675 241.227051 225.425446 240.741806 L 247.680008 235.112717 C 256.241882 232.956482 263.565399 227.4245 267.980408 219.778412 C 272.395416 212.132324 273.525421 203.024078 271.112701 194.530914 L 264.959991 172.407272 C 264.388947 170.489487 264.726532 168.415833 265.876343 166.778168 Z M 203.825455 123.709091 L 143.083633 184.450912 C 131.761276 195.623581 113.562355 195.623581 102.239998 184.450912 L 84.174545 166.385452 C 81.472099 163.727585 79.950081 160.095886 79.950081 156.30545 C 79.950081 152.515015 81.472099 148.883316 84.174545 146.225449 C 89.771034 140.729996 98.73806 140.729996 104.334541 146.225449 L 122.400002 164.290909 L 183.796356 103.549088 C 189.363403 98.018204 198.360031 98.047516 203.8909 103.614548 C 209.421783 109.18158 209.392487 118.178207 203.825455 123.709091 Z"/>
        </g>
    </g>
</svg>
