<?xml version="1.0" encoding="UTF-8"?>
<!-- Generated by Pixelmator Pro 3.0.1 -->
<svg width="56" height="56" viewBox="0 0 56 56" xmlns="http://www.w3.org/2000/svg" xmlns:xlink="http://www.w3.org/1999/xlink">
    <g id="Associer" opacity="0.5">
        <path id="Trac" fill="#f230aa" stroke="none" d="M 27.9835 0 L 27.983601 0 C 43.438461 0 55.967098 12.528641 55.967098 27.9835 L 55.967098 27.983601 C 55.967098 43.438461 43.438461 55.967098 27.983601 55.967098 L 27.9835 55.967098 C 12.52864 55.967098 0 43.438461 0 27.983601 L 0 27.9835 C -0 12.528641 12.52864 0 27.9835 0 Z"/>
        <path id="shopping-bag" fill="#ffffff" stroke="none" d="M 34.857143 21.57143 L 34.857143 19.857143 C 34.857143 16.076069 31.781019 13 28 13 C 24.218929 13 21.142857 16.076069 21.142857 19.857143 L 21.142857 21.57143 L 16 21.57143 L 16 36.142857 C 16 38.509804 17.918768 40.428574 20.285715 40.428574 L 35.714287 40.428574 C 38.081234 40.428574 40 38.509804 40 36.142857 L 40 21.57143 L 34.857143 21.57143 Z M 24.571428 19.857143 C 24.571428 17.966606 26.109465 16.42857 28 16.42857 C 29.890535 16.42857 31.428572 17.966606 31.428572 19.857143 L 31.428572 21.57143 L 24.571428 21.57143 L 24.571428 19.857143 Z M 33.142857 26.285715 C 32.432766 26.285715 31.857143 25.710089 31.857143 25 C 31.857143 24.289911 32.432766 23.714287 33.142857 23.714287 C 33.852947 23.714287 34.42857 24.289911 34.42857 25 C 34.42857 25.710089 33.852947 26.285715 33.142857 26.285715 Z M 22.857143 26.285715 C 22.147055 26.285715 21.571428 25.710089 21.571428 25 C 21.571428 24.289911 22.147055 23.714287 22.857143 23.714287 C 23.567232 23.714287 24.142857 24.289911 24.142857 25 C 24.142857 25.710089 23.567232 26.285715 22.857143 26.285715 Z"/>
    </g>
</svg>
