<svg id="SvgjsSvg2685" width="288" height="288" xmlns="http://www.w3.org/2000/svg" version="1.1" xmlns:xlink="http://www.w3.org/1999/xlink" xmlns:svgjs="http://svgjs.com/svgjs"><defs id="SvgjsDefs2686"></defs><g id="SvgjsG2687"><svg xmlns="http://www.w3.org/2000/svg" viewBox="0 0 30 30" width="288" height="288"><g transform="translate(-891.36 -26.129) scale(3.77953)" fill="#272c30" class="color000 svgShape"><path fill="#ffffff" d="m 242.9827,10.882061 a 3.175,3.175 0 0 1 -3.175,3.174999 3.175,3.175 0 0 1 -3.175,-3.174999 3.175,3.175 0 0 1 3.175,-3.175 3.175,3.175 0 0 1 3.175,3.175 z" class="colorff4b3d svgShape"></path><path fill="#272c30" d="m 240.6092,9.8237273 a 0.26458333,0.26458333 0 0 0 -0.19482,0.077515 l -1.5875,1.5874997 a 0.26458333,0.26458333 0 0 0 0,0.374137 0.26458333,0.26458333 0 0 0 0.37414,0 l 1.5875,-1.5875 a 0.26458333,0.26458333 0 0 0 0,-0.3741367 0.26458333,0.26458333 0 0 0 -0.17932,-0.077515 z" color="#000" font-family="sans-serif" font-weight="400" overflow="visible" style="line-height:normal;font-variant-ligatures:normal;font-variant-position:normal;font-variant-caps:normal;font-variant-numeric:normal;font-variant-alternates:normal;font-variant-east-asian:normal;font-feature-settings:normal;font-variation-settings:normal;text-indent:0;text-align:start;text-decoration-line:none;text-decoration-style:solid;text-decoration-color:#000;text-transform:none;text-orientation:mixed;shape-padding:0;shape-margin:0;inline-size:0;isolation:auto;mix-blend-mode:normal" class="colord2352d svgShape"></path><path fill="#272c30" d="m 239.0217,9.8237273 a 0.26458333,0.26458333 0 0 0 -0.19482,0.077515 0.26458333,0.26458333 0 0 0 0,0.3741367 l 1.5875,1.5875 a 0.26458333,0.26458333 0 0 0 0.37414,0 0.26458333,0.26458333 0 0 0 0,-0.374137 l -1.5875,-1.5874997 a 0.26458333,0.26458333 0 0 0 -0.17932,-0.077515 z" color="#000" font-family="sans-serif" font-weight="400" overflow="visible" style="line-height:normal;font-variant-ligatures:normal;font-variant-position:normal;font-variant-caps:normal;font-variant-numeric:normal;font-variant-alternates:normal;font-variant-east-asian:normal;font-feature-settings:normal;font-variation-settings:normal;text-indent:0;text-align:start;text-decoration-line:none;text-decoration-style:solid;text-decoration-color:#000;text-transform:none;text-orientation:mixed;shape-padding:0;shape-margin:0;inline-size:0;isolation:auto;mix-blend-mode:normal" class="colord2352d svgShape"></path></g></svg></g></svg>