<svg xmlns="http://www.w3.org/2000/svg" width="24" height="24" fill="none"><path fill="url(#a)" d="M20.26 12.39a1 1 0 0 1 0-.78l1.46-3.43A3 3 0 0 0 19 4H5a3 3 0 0 0-2.72 4.18l1.46 3.43a1 1 0 0 1 0 .78l-1.46 3.43A3 3 0 0 0 5 20h14a3.002 3.002 0 0 0 2.75-4.18l-1.49-3.43Zm-4.55-2.68-6 6a1 1 0 0 1-1.639-.325 1 1 0 0 1 .219-1.095l6-6a1.004 1.004 0 0 1 1.42 1.42ZM16 15a1 1 0 1 1-2 0 1 1 0 0 1 2 0ZM8 9a1 1 0 1 1 2 0 1 1 0 0 1-2 0Z"/><path fill="url(#b)" d="m15.71 9.71-6 6a1 1 0 0 1-1.639-.325 1 1 0 0 1 .219-1.095l6-6a1.004 1.004 0 0 1 1.42 1.42Z"/><path fill="url(#c)" d="M15 16a1 1 0 1 0 0-2 1 1 0 0 0 0 2Z"/><path fill="url(#d)" d="M9 10a1 1 0 1 0 0-2 1 1 0 0 0 0 2Z"/><defs><linearGradient id="a" x1="12.015" x2="12.015" y1="4" y2="20" gradientUnits="userSpaceOnUse"><stop stop-color="#FFDE00"/><stop offset="1" stop-color="#FD5900"/></linearGradient><linearGradient id="b" x1="11.999" x2="11.999" y1="7.996" y2="16.006" gradientUnits="userSpaceOnUse"><stop stop-color="#FEFED5"/><stop offset="1" stop-color="#FFE59A"/></linearGradient><linearGradient id="c" x1="15" x2="15" y1="14" y2="16" gradientUnits="userSpaceOnUse"><stop stop-color="#FEFED5"/><stop offset="1" stop-color="#FFE59A"/></linearGradient><linearGradient id="d" x1="9" x2="9" y1="8" y2="10" gradientUnits="userSpaceOnUse"><stop stop-color="#FEFED5"/><stop offset="1" stop-color="#FFE59A"/></linearGradient></defs></svg>