<svg xmlns="http://www.w3.org/2000/svg" enable-background="new 0 0 24 24" viewBox="0 0 24 24"><path fill="#FF2A80" d="M20,2H4C3.4,2,3,2.4,3,3v18c0,0.6,0.4,1,1,1c0.2,0,0.4-0.1,0.6-0.2l2.1-1.5l2.1,1.5c0.4,0.3,0.8,0.3,1.2,0l2.1-1.5l2.1,1.5c0.4,0.3,0.8,0.3,1.2,0l2.1-1.5l2.1,1.5c0.2,0.1,0.4,0.2,0.6,0.2c0.6,0,1-0.4,1-1V3C21,2.4,20.6,2,20,2z M16,16H8c-0.6,0-1-0.4-1-1c0-0.6,0.4-1,1-1h8c0.6,0,1,0.4,1,1C17,15.6,16.6,16,16,16z M16,12H8c-0.6,0-1-0.4-1-1c0-0.6,0.4-1,1-1h8c0.6,0,1,0.4,1,1C17,11.6,16.6,12,16,12z M16,8h-6C9.4,8,9,7.6,9,7c0-0.6,0.4-1,1-1h6c0.6,0,1,0.4,1,1C17,7.6,16.6,8,16,8z"/></svg>