<svg xmlns="http://www.w3.org/2000/svg" enable-background="new 0 0 24 24" viewBox="0 0 24 24"><path fill="#FF7E7E" d="M10.2,6.2L11,5.4V10c0,0.6,0.4,1,1,1h0c0.6,0,1-0.4,1-1V5.4l0.8,0.8c0.2,0.2,0.4,0.3,0.7,0.3c0.3,0,0.5-0.1,0.7-0.3c0.4-0.4,0.4-1,0-1.4l-2.5-2.5c0,0,0,0,0,0c-0.4-0.4-1-0.4-1.4,0L8.8,4.8c-0.4,0.4-0.4,1,0,1.4C9.2,6.6,9.8,6.6,10.2,6.2z M18,7.5c-0.4-0.4-1-0.4-1.4,0s-0.4,1,0,1.4l0,0c2.5,2.5,2.5,6.7,0,9.2s-6.7,2.5-9.2,0s-2.5-6.7,0-9.2c0.4-0.4,0.4-1,0-1.4s-1-0.4-1.4,0c-1.6,1.6-2.5,3.8-2.5,6c0,4.7,3.8,8.5,8.5,8.5c2.3,0,4.4-0.9,6-2.5C21.3,16.2,21.3,10.8,18,7.5z"/></svg>