<svg id="SvgjsSvg1011" width="288" height="288" xmlns="http://www.w3.org/2000/svg" version="1.1" xmlns:xlink="http://www.w3.org/1999/xlink" xmlns:svgjs="http://svgjs.com/svgjs"><defs id="SvgjsDefs1012"></defs><g id="SvgjsG1013"><svg xmlns="http://www.w3.org/2000/svg" data-name="Layer 3" viewBox="0 0 22 22" width="288" height="288"><path d="M21.34 11.31a2.447 2.447 0 0 0 .43-1.89 2.485 2.485 0 0 0-1.05-1.64l-1.46-.99a.488.488 0 0 1-.21-.37l-.13-1.75a2.47 2.47 0 0 0-.89-1.73 2.509 2.509 0 0 0-1.86-.58l-1.74.18a.472.472 0 0 1-.41-.15l-1.23-1.26a2.511 2.511 0 0 0-3.58 0L7.98 2.39a.472.472 0 0 1-.41.15l-1.74-.18a2.52 2.52 0 0 0-2.75 2.31l-.13 1.75a.505.505 0 0 1-.22.38l-1.45.99a2.501 2.501 0 0 0-.62 3.52l1.03 1.43a.5.5 0 0 1 .07.43l-.48 1.69a2.51 2.51 0 0 0 .25 1.93 2.48 2.48 0 0 0 1.55 1.17l1.7.43a.49.49 0 0 1 .33.28l.72 1.6A2.499 2.499 0 0 0 9.2 21.5l1.58-.76a.487.487 0 0 1 .44 0l1.58.76a2.44 2.44 0 0 0 1.08.25 2.553 2.553 0 0 0 .86-.15 2.527 2.527 0 0 0 1.43-1.33l.72-1.6a.49.49 0 0 1 .33-.28l1.7-.43a2.494 2.494 0 0 0 1.79-3.1l-.47-1.69a.5.5 0 0 1 .07-.43Zm-5.77-1.86-4.64 4.64a2.221 2.221 0 0 1-3.12 0l-1.38-1.38a1.08 1.08 0 0 1 0-1.54 1.099 1.099 0 0 1 1.54 0l1.38 1.38 4.69-4.64a1.085 1.085 0 1 1 1.53 1.54Z" fill="#ffffff" class="color000 svgShape"></path></svg></g></svg>